<svg aria-hidden="true" style="position: absolute; width: 0; height: 0; overflow: hidden;" version="1.1" xmlns="http://www.w3.org/2000/svg" xmlns:xlink="http://www.w3.org/1999/xlink">
<defs>

<symbol id="linkedin" viewBox="0 0 32 32">
<path d="M31.992 32h0.008v-11.738c0-5.741-1.237-10.163-7.947-10.163-3.227 0-5.392 1.77-6.277 3.45h-0.093v-2.914h-6.365v21.363h6.627v-10.578c0-2.786 0.528-5.48 3.978-5.48 3.398 0 3.448 3.179 3.448 5.658v10.402h6.621zM0.528 10.635h6.635v21.365h-6.635v-21.365zM3.843 0c-2.123 0-3.843 1.721-3.843 3.843v0c0 2.12 1.722 3.878 3.843 3.878 2.12 0 3.842-1.757 3.842-3.878s-1.72-3.841-3.841-3.843h-0z"></path>
</symbol>
<symbol id="facebook" viewBox="0 0 32 32">
<path d="M21.328 5.312h2.923v-5.088c-1.232-0.143-2.66-0.224-4.108-0.224-0.052 0-0.104 0-0.156 0l0.008-0c-4.213 0-7.099 2.65-7.099 7.52v4.48h-4.646v5.688h4.646v14.312h5.699v-14.31h4.459l0.707-5.688h-5.168v-3.922c0-1.643 0.443-2.768 2.734-2.768z"></path>
</symbol>
<symbol id="twitter" viewBox="0 0 32 32">
<path d="M32 6.078c-1.1 0.493-2.376 0.857-3.713 1.028l-0.068 0.007c1.36-0.817 2.382-2.078 2.873-3.579l0.013-0.046c-1.197 0.722-2.591 1.273-4.076 1.573l-0.084 0.014c-1.2-1.279-2.9-2.076-4.787-2.076-3.622 0-6.558 2.936-6.558 6.558 0 0.001 0 0.003 0 0.004v-0c0 0.52 0.043 1.021 0.152 1.496-5.454-0.266-10.28-2.88-13.522-6.861-0.564 0.949-0.899 2.092-0.902 3.313v0.001c0 2.272 1.171 4.286 2.914 5.451-1.091-0.030-2.107-0.325-2.994-0.823l0.033 0.017v0.072c0.003 3.165 2.236 5.807 5.213 6.44l0.043 0.008c-0.499 0.136-1.071 0.215-1.662 0.215-0.020 0-0.041-0-0.061-0l0.003 0c-0.419 0-0.843-0.024-1.242-0.112 0.85 2.598 3.261 4.509 6.13 4.57-2.215 1.746-5.045 2.8-8.122 2.8-0.004 0-0.008 0-0.013 0h0.001c-0.018 0-0.040 0-0.062 0-0.531 0-1.055-0.034-1.569-0.099l0.061 0.006c2.826 1.846 6.287 2.944 10.004 2.944 0.021 0 0.042-0 0.063-0h-0.003c12.072 0 18.672-10 18.672-18.669 0-0.288-0.010-0.57-0.024-0.848 1.299-0.936 2.39-2.064 3.258-3.355l0.030-0.047z"></path>
</symbol>
<symbol id="instagram" viewBox="0 0 32 32">
<path d="M31.968 9.408c-0.074-1.701-0.349-2.869-0.742-3.882-0.424-1.111-1.054-2.059-1.85-2.837l-0.001-0.001c-0.78-0.792-1.724-1.419-2.778-1.827l-0.054-0.018c-1.019-0.394-2.181-0.667-3.882-0.742-1.712-0.082-2.256-0.101-6.602-0.101-4.344 0-4.888 0.019-6.595 0.094-1.699 0.074-2.869 0.349-3.88 0.742-1.112 0.424-2.060 1.054-2.839 1.85l-0.001 0.001c-0.791 0.78-1.418 1.724-1.825 2.778l-0.018 0.054c-0.395 1.019-0.669 2.181-0.744 3.882-0.082 1.712-0.101 2.256-0.101 6.602 0 4.344 0.019 4.888 0.094 6.595 0.075 1.701 0.35 2.869 0.744 3.882 0.426 1.11 1.055 2.057 1.849 2.837l0.001 0.001c0.8 0.813 1.77 1.443 2.832 1.843 1.019 0.395 2.182 0.67 3.882 0.744 1.707 0.075 2.251 0.094 6.595 0.094 4.346 0 4.89-0.019 6.595-0.094 1.701-0.074 2.869-0.349 3.882-0.742 2.157-0.85 3.833-2.526 4.664-4.628l0.019-0.055c0.394-1.019 0.669-2.182 0.744-3.882 0.075-1.707 0.093-2.251 0.093-6.595s-0.006-4.888-0.080-6.595zM29.088 22.474c-0.070 1.563-0.333 2.406-0.55 2.97-0.552 1.399-1.64 2.486-3.004 3.024l-0.036 0.012c-0.56 0.219-1.411 0.482-2.968 0.55-1.688 0.075-2.194 0.094-6.464 0.094-4.269 0-4.782-0.019-6.464-0.094-1.563-0.069-2.406-0.331-2.97-0.55-0.721-0.269-1.334-0.676-1.836-1.192l-0.001-0.001c-0.517-0.503-0.924-1.117-1.184-1.803l-0.011-0.034c-0.218-0.563-0.48-1.413-0.549-2.97-0.075-1.688-0.094-2.195-0.094-6.464 0-4.27 0.019-4.784 0.094-6.464 0.069-1.563 0.331-2.406 0.549-2.97 0.269-0.722 0.678-1.337 1.198-1.837l0.002-0.002c0.504-0.517 1.119-0.923 1.806-1.182l0.034-0.011c0.56-0.219 1.411-0.48 2.968-0.55 1.688-0.074 2.195-0.093 6.464-0.093 4.275 0 4.782 0.019 6.464 0.093 1.563 0.069 2.406 0.331 2.97 0.55 0.693 0.256 1.325 0.662 1.837 1.194 0.531 0.52 0.938 1.144 1.195 1.84 0.218 0.56 0.48 1.411 0.549 2.968 0.075 1.688 0.094 2.194 0.094 6.464 0 4.269-0.019 4.768-0.094 6.458z"></path>
<path d="M16.059 7.782c-4.539 0.002-8.218 3.682-8.219 8.221v0c0.091 4.471 3.737 8.060 8.221 8.060s8.13-3.589 8.221-8.052l0-0.009c-0.001-4.54-3.681-8.22-8.221-8.221h-0zM16.059 21.334c-2.945-0-5.332-2.388-5.332-5.333s2.388-5.333 5.333-5.333c0 0 0.001 0 0.001 0h-0c2.946 0 5.334 2.388 5.334 5.334s-2.388 5.334-5.334 5.334v0zM26.525 7.458c0 1.060-0.86 1.92-1.92 1.92s-1.92-0.86-1.92-1.92v0c0-1.060 0.86-1.92 1.92-1.92s1.92 0.86 1.92 1.92v0z"></path>
</symbol>

<symbol id="arrow" viewBox="0 0 15 8">
<path d="M14.3536 4.35355C14.5488 4.15829 14.5488 3.84171 14.3536 3.64645L11.1716 0.464466C10.9763 0.269204 10.6597 0.269204 10.4645 0.464466C10.2692 0.659728 10.2692 0.976311 10.4645 1.17157L13.2929 4L10.4645 6.82843C10.2692 7.02369 10.2692 7.34027 10.4645 7.53553C10.6597 7.7308 10.9763 7.7308 11.1716 7.53553L14.3536 4.35355ZM0 4.5H14V3.5H0V4.5Z" fill="white"/>
</symbol>

<symbol id="pero-mail" viewBox="0 0 19 19" fill="none">
<g clip-path="url(#clip0_19_387)">
<path d="M17.327 4.72464C17.292 4.67775 17.2482 4.6382 17.1979 4.60827C17.1476 4.57834 17.092 4.5586 17.0341 4.55019C16.9762 4.54178 16.9172 4.54486 16.8605 4.55926C16.8038 4.57366 16.7505 4.59909 16.7036 4.6341L9.52069 9.99566C9.49499 10.0149 9.46374 10.0253 9.43163 10.0253C9.39951 10.0253 9.36826 10.0149 9.34256 9.99566L2.30069 4.61035C2.2542 4.57487 2.20117 4.5489 2.14465 4.53391C2.08812 4.51893 2.02919 4.51522 1.97123 4.52301C1.91327 4.5308 1.85741 4.54992 1.80684 4.5793C1.75627 4.60868 1.71199 4.64772 1.67651 4.69421C1.64103 4.74071 1.61506 4.79373 1.60007 4.85026C1.58509 4.90679 1.58138 4.96571 1.58917 5.02367C1.59696 5.08163 1.61609 5.13749 1.64546 5.18806C1.67484 5.23863 1.71389 5.28292 1.76038 5.31839L7.29709 9.55332L1.82124 13.6799C1.77406 13.7151 1.73428 13.7592 1.70416 13.8098C1.67405 13.8603 1.65418 13.9163 1.6457 13.9745C1.63723 14.0328 1.6403 14.0921 1.65476 14.1492C1.66921 14.2062 1.69476 14.2599 1.72995 14.307C1.76513 14.3542 1.80926 14.394 1.85982 14.4241C1.91038 14.4542 1.96638 14.4741 2.02461 14.4826C2.08285 14.491 2.14219 14.488 2.19923 14.4735C2.25628 14.4591 2.30992 14.4335 2.3571 14.3983L8.03186 10.1144L8.80077 10.7082C8.98005 10.8454 9.19916 10.9205 9.42494 10.9221C9.65072 10.9237 9.87087 10.8517 10.0521 10.7171L10.8596 10.1144L16.6012 14.3983C16.648 14.4333 16.7014 14.4587 16.7581 14.4731C16.8148 14.4875 16.8737 14.4906 16.9316 14.4822C16.9895 14.4738 17.0452 14.454 17.0955 14.4241C17.1457 14.3942 17.1896 14.3547 17.2246 14.3078C17.2596 14.2609 17.285 14.2076 17.2994 14.1509C17.3138 14.0942 17.3168 14.0352 17.3084 13.9773C17.3 13.9194 17.2803 13.8637 17.2504 13.8135C17.2205 13.7632 17.1809 13.7193 17.134 13.6843L11.6033 9.55183L17.2365 5.34363C17.3299 5.27307 17.3918 5.16856 17.4087 5.05271C17.4257 4.93687 17.3963 4.81901 17.327 4.72464Z" fill="#282828"/>
<path d="M16.7734 2.82031H2.22656C1.63604 2.82031 1.06971 3.0549 0.652145 3.47246C0.234584 3.89002 0 4.45635 0 5.04688L0 13.9531C0 14.5436 0.234584 15.11 0.652145 15.5275C1.06971 15.9451 1.63604 16.1797 2.22656 16.1797H16.7734C17.364 16.1797 17.9303 15.9451 18.3479 15.5275C18.7654 15.11 19 14.5436 19 13.9531V5.04688C19 4.45635 18.7654 3.89002 18.3479 3.47246C17.9303 3.0549 17.364 2.82031 16.7734 2.82031ZM18.1094 13.9531C18.1094 14.3074 17.9686 14.6472 17.7181 14.8978C17.4676 15.1483 17.1278 15.2891 16.7734 15.2891H2.22656C1.87225 15.2891 1.53245 15.1483 1.28191 14.8978C1.03138 14.6472 0.890625 14.3074 0.890625 13.9531V5.04688C0.890625 4.69256 1.03138 4.35276 1.28191 4.10222C1.53245 3.85169 1.87225 3.71094 2.22656 3.71094H16.7734C17.1278 3.71094 17.4676 3.85169 17.7181 4.10222C17.9686 4.35276 18.1094 4.69256 18.1094 5.04688V13.9531Z" fill="#282828" stroke="#282828" stroke-width="0.5"/>
</g>
<defs>
<clipPath id="clip0_19_387">
<rect width="19" height="19" fill="white"/>
</clipPath>
</defs>
</symbol>

<symbol id="telegram" viewBox="0 0 20 20" fill="none">
<path d="M18.6643 4.02291L16.0343 16.4259C15.8359 17.3013 15.3184 17.519 14.5831 17.1068L10.5759 14.1538L8.64242 16.0135C8.42848 16.2274 8.24945 16.4065 7.83707 16.4065L8.12496 12.3253L15.5519 5.61413C15.8748 5.32623 15.4819 5.1667 15.05 5.45463L5.86848 11.2359L1.91574 9.99874C1.05594 9.73026 1.04043 9.13889 2.09469 8.72655L17.5554 2.77022C18.2712 2.50178 18.8976 2.92967 18.6643 4.02291Z" stroke="#282828" stroke-width="1.4" stroke-miterlimit="10" stroke-linecap="round" stroke-linejoin="round"/>
</symbol>

<symbol id="whatsapp" viewBox="0 0 19 19" fill="none">
<path d="M18.7774 9.37749C18.7737 10.9843 18.4248 12.4019 17.7198 13.7193C17.0555 14.9625 16.1389 15.9978 14.9848 16.8142C13.9717 17.5304 12.8621 18.0203 11.6487 18.2726C10.3053 18.5509 8.96195 18.5212 7.62972 18.2021C6.92464 18.0314 6.24925 17.7716 5.61468 17.4265C5.50706 17.3671 5.41429 17.3634 5.29925 17.4005C3.90023 17.8496 2.5012 18.2949 1.10218 18.7402C0.942607 18.7921 0.786748 18.8404 0.627178 18.8998C0.515849 18.9406 0.508428 18.8998 0.538115 18.807C0.701396 18.3283 0.860967 17.8496 1.02425 17.3671C1.37308 16.3244 1.7219 15.2816 2.07815 14.2425C2.1264 14.1052 2.05589 14.0162 2.00022 13.9197C1.56233 13.1589 1.25062 12.35 1.05765 11.4964C0.63831 9.65581 0.786748 7.8523 1.49183 6.10445C1.90003 5.09507 2.48265 4.1896 3.22855 3.38804C4.17855 2.36382 5.30296 1.6105 6.60179 1.10581C7.81526 0.634525 9.06956 0.452689 10.361 0.530619C12.1311 0.638236 13.7416 1.22456 15.1555 2.29331C16.985 3.67378 18.1354 5.48843 18.5955 7.74097C18.718 8.31617 18.7625 8.89878 18.7774 9.37749ZM9.74124 2.03355C9.39612 2.0187 8.99163 2.05953 8.58714 2.1189C8.42757 2.14117 8.27171 2.17456 8.11585 2.21538C5.70374 2.82769 3.97073 4.26753 2.95022 6.53492C2.36019 7.84488 2.20062 9.22906 2.42327 10.6466C2.59769 11.7673 3.01331 12.799 3.66272 13.7304C3.73323 13.8343 3.74437 13.9234 3.70355 14.0384C3.42894 14.8437 3.16175 15.6527 2.89085 16.4617C2.87601 16.5062 2.83148 16.5582 2.8723 16.599C2.91312 16.6435 2.96507 16.5953 3.0096 16.5804C3.8223 16.3207 4.63499 16.0646 5.44026 15.7937C5.62581 15.7306 5.75941 15.7603 5.91898 15.8568C7.74105 16.9515 9.68929 17.241 11.7414 16.6955C13.3 16.2835 14.584 15.4337 15.6008 14.1794C16.5842 12.966 17.1334 11.5781 17.2448 10.0269C17.3301 8.8357 17.1446 7.67788 16.6696 6.57203C16.0721 5.18042 15.1407 4.06714 13.8826 3.2396C12.6506 2.43062 11.2887 2.01499 9.74124 2.03355Z" fill="#282828"/>
<path d="M5.3103 7.33275C5.32515 6.49779 5.65171 5.81126 6.28999 5.27689C6.47183 5.12474 6.69077 5.06165 6.93198 5.10247C7.03589 5.11732 7.14351 5.13216 7.2437 5.12103C7.49604 5.10247 7.64077 5.24349 7.7187 5.4513C7.9562 6.07474 8.18628 6.70189 8.42007 7.32533C8.4646 7.44408 8.45347 7.55169 8.3978 7.66302C8.25308 7.96361 8.023 8.1974 7.79292 8.43119C7.59253 8.63529 7.5814 8.70208 7.7187 8.95072C8.38296 10.1531 9.29956 11.0882 10.5687 11.656C10.6318 11.682 10.6875 11.7265 10.7468 11.7525C10.9064 11.8304 11.0511 11.823 11.1847 11.6857C11.4445 11.4222 11.6857 11.1402 11.9195 10.8507C12.1013 10.6244 12.1867 10.591 12.4427 10.706C13.0662 10.9954 13.6599 11.3331 14.2648 11.6597C14.4652 11.7673 14.4875 11.9158 14.4578 12.1867C14.3353 13.2888 13.4929 13.7898 12.5318 13.9494C12.2089 14.0013 11.9046 13.9716 11.6003 13.8751C10.7097 13.5931 9.83394 13.2665 9.04722 12.7544C8.31245 12.2757 7.68159 11.6783 7.12866 10.9992C6.59058 10.3349 6.11187 9.63353 5.71479 8.87279C5.49214 8.43861 5.3103 7.76322 5.3103 7.33275Z" fill="#282828"/>
</symbol>


<symbol id="send" viewBox="0 0 24 24"><path d="M24 0L0 13.5l7.67 2.84L19.5 5.25l-8.998 12.14.007.002-.009-.002V24l4.301-5.018L20.251 21 24 0z" fill="#fff"/>
</symbol>
<symbol id="close" viewBox="0 0 18 18">
<path d="M15 4.20857L13.7914 3L9 7.79143L4.20857 3L3 4.20857L7.79143 9L3 13.7914L4.20857 15L9 10.2086L13.7914 15L15 13.7914L10.2086 9L15 4.20857z" />
</symbol>
<symbol id="envelope" viewBox="0 0 32 24"><path d="M29,0H3C1.3,0,0,1.3,0,3v18c0,1.7,1.3,3,3,3h26c1.7,0,3-1.3,3-3V3C32,1.3,30.7,0,29,0z M29,2
c0.1,0,0.3,0,0.4,0.1L16,13.7L2.6,2.1C2.7,2,2.9,2,3,2C3,2,29,2,29,2z M29,22H3c-0.6,0-1-0.4-1-1l0,0V4.2l13.3,11.6
c0.2,0.2,0.4,0.2,0.7,0.2c0.3,0,0.5-0.1,0.7-0.2l0,0L30,4.2V21C30,21.6,29.6,22,29,22L29,22z"></path>
</symbol>
<symbol id="smartphone" viewBox="0 0 20 32">
<path d="M17,0H3C1.3,0,0,1.3,0,3v26c0,1.7,1.3,3,3,3h14c1.7,0,3-1.3,3-3V3C20,1.3,18.7,0,17,0z M3,2h14
c0.6,0,1,0.4,1,1l0,0v21H2V3C2,2.4,2.4,2,3,2L3,2z M17,30H3c-0.6,0-1-0.4-1-1l0,0v-3h16v3C18,29.6,17.6,30,17,30L17,30z"/>
<path d="M4.7,27.5C4.9,27.6,5,27.9,5,28.1s-0.1,0.5-0.3,0.7l0,0C4.5,29,4.3,29.1,4,29.1S3.5,29,3.3,28.8l0,0
C3.1,28.6,3,28.4,3,28.1s0.1-0.5,0.3-0.7l0,0c0.2-0.2,0.4-0.3,0.7-0.3S4.5,27.3,4.7,27.5L4.7,27.5z"/>
</symbol>
<symbol id="checkbox" viewBox="0 0 13 10"><path d="M1.95703 4.75166L1.88825 4.68604L1.81923 4.75141L0.93123 5.59258L0.854858 5.66492L0.930974 5.73753L4.42671 9.07236L4.49574 9.1382L4.56476 9.07236L12.069 1.91352L12.1449 1.84116L12.069 1.76881L11.1873 0.927644L11.1183 0.861826L11.0493 0.927611L4.49577 7.17353L1.95703 4.75166Z" fill="white" stroke="white" stroke-width="0.2"/>
</symbol>
<symbol id="form-email" viewBox="0 0 18 18"><path d="M15 3H3c-.825 0-1.492.675-1.492 1.5l-.008 9c0 .825.675 1.5 1.5 1.5h12c.825 0 1.5-.675 1.5-1.5v-9c0-.825-.675-1.5-1.5-1.5Zm-.3 3.188L9.398 9.502a.759.759 0 0 1-.796 0L3.3 6.188a.637.637 0 1 1 .675-1.08L9 8.25l5.025-3.143a.637.637 0 1 1 .675 1.08z" />
</symbol>
<symbol id="form-phone" viewBox="0 0 18 18"><path d="M13.996 11.1226L12.1579 10.9127C11.7164 10.862 11.2822 11.014 10.971 11.3252L9.63945 12.6568C7.59144 11.6147 5.91251 9.94296 4.87041 7.8877L6.20922 6.54888C6.5204 6.2377 6.67237 5.80349 6.62171 5.36205L6.41185 3.53836C6.325 2.80745 5.70988 2.25745 4.97173 2.25745H3.71976C2.902 2.25745 2.22175 2.93771 2.2724 3.75547C2.65595 9.93572 7.59868 14.8712 13.7717 15.2548C14.5894 15.3054 15.2697 14.6252 15.2697 13.8074V12.5555C15.2769 11.8245 14.7269 11.2094 13.996 11.1226z" />
</symbol>
<symbol id="person" viewBox="0 0 18 18"><path d="M9 9a3 3 0 1 0 0-6 3 3 0 1 0 0 6Zm0 1.5c-2.003 0-6 1.005-6 3v.75c0 .412.337.75.75.75h10.5c.412 0 .75-.338.75-.75v-.75c0-1.995-3.998-3-6-3z" />
</symbol>
<symbol id="cross" viewBox="0 0 40 40"><path d="M29.667 12.88 27.787 11l-7.454 7.453L12.88 11 11 12.88l7.453 7.453L11 27.787l1.88 1.88 7.453-7.454 7.454 7.454 1.88-1.88-7.454-7.454 7.454-7.453Z" /></symbol>
<symbol id="burger" width="40" height="40"><path fill-rule="evenodd" clip-rule="evenodd" d="M8 14.667V12h24v2.667H8Zm0 6.666h24v-2.666H8v2.666ZM8 28h24v-2.667H8V28Z" /></symbol>

</defs>
</svg>